####
#
# OBJ File Generated by Meshlab
#
####
# Object sim_icub3_r_forearm_prt.obj
#
# Vertices: 52
# Faces: 100
#
####
vn -0.830657 -0.463264 -0.308861
v 0.175364 0.005658 -0.263022
vn -0.956804 0.028101 -0.289372
v 0.168811 0.039973 -0.269303
vn -0.771768 -0.413888 -0.482774
v 0.189687 0.017082 -0.311598
vn -0.841750 0.040948 -0.538312
v 0.184853 0.041379 -0.316240
vn -0.370345 -0.875094 -0.311536
v 0.191404 -0.004787 -0.276353
vn -0.612086 0.003403 -0.790784
v 0.193857 0.038115 -0.326029
vn -0.359034 -0.728246 -0.583740
v 0.199177 0.009181 -0.315919
vn -0.987115 0.152105 0.049682
v 0.157731 0.033649 -0.226578
vn -0.818384 0.536032 -0.207166
v 0.176223 0.064243 -0.269621
vn -0.801429 0.584821 0.125281
v 0.167717 0.062321 -0.237768
vn -0.414032 -0.902677 -0.117272
v 0.182563 -0.018414 -0.223205
vn -0.862628 -0.501111 0.068996
v 0.164020 -0.002501 -0.216355
vn -0.494692 0.708448 -0.503370
v 0.197459 0.066641 -0.315192
vn -0.765498 0.439823 -0.469646
v 0.186244 0.059970 -0.309810
vn 0.323248 -0.914176 -0.244526
v 0.231655 -0.005313 -0.279680
vn 0.491536 -0.868271 -0.067073
v 0.232363 -0.012048 -0.223947
vn -0.391966 -0.514835 -0.762435
v 0.203043 0.018951 -0.325218
vn 0.220825 -0.857687 -0.464339
v 0.223787 0.006846 -0.312295
vn 0.130751 0.673100 -0.727902
v 0.228721 0.073462 -0.336643
vn -0.402793 0.063709 -0.913071
v 0.197972 0.035859 -0.328220
vn 0.651905 -0.093811 -0.752476
v 0.239019 0.031358 -0.340313
vn -0.865631 0.221190 0.449175
v 0.159810 0.028885 -0.211167
vn -0.296954 -0.352026 0.887635
v 0.183648 0.040543 -0.190519
vn -0.327280 -0.468437 0.820643
v 0.191902 -0.013927 -0.197861
vn -0.640772 -0.622712 0.449045
v 0.168082 -0.004538 -0.208845
vn -0.424563 -0.905198 0.019039
v 0.190498 -0.023897 -0.211482
vn -0.428886 0.362039 0.827638
v 0.186327 0.040515 -0.188340
vn -0.108408 0.345229 0.932236
v 0.192114 0.044225 -0.188080
vn 0.367333 0.159548 0.916303
v 0.233749 0.037722 -0.192726
vn -0.229657 -0.884338 0.406453
v 0.194108 -0.023812 -0.205670
vn 0.347001 -0.520776 0.779989
v 0.231075 -0.007116 -0.193107
vn 0.351523 0.492657 0.796066
v 0.230313 0.049041 -0.193480
vn -0.365641 0.916361 -0.163064
v 0.192858 0.077628 -0.279375
vn -0.280971 0.935313 0.215048
v 0.190330 0.079522 -0.238701
vn 0.281901 0.959101 -0.025616
v 0.231637 0.079338 -0.284602
vn 0.292944 0.895374 0.335393
v 0.224827 0.075491 -0.229379
vn 0.290569 -0.818550 0.495525
v 0.218678 -0.020095 -0.200319
vn 0.188645 -0.842149 -0.505172
v 0.218239 -0.019629 -0.218176
vn 0.718531 -0.338273 0.607688
v 0.240571 0.000394 -0.194949
vn 0.739405 0.079851 0.668509
v 0.242400 0.027586 -0.194921
vn 0.889726 -0.452263 0.062012
v 0.245641 0.001866 -0.228243
vn 0.054173 0.374446 -0.925665
v 0.235416 0.029934 -0.342409
vn 0.233998 -0.488501 -0.840602
v 0.234614 0.025759 -0.342514
vn 0.917383 -0.064462 -0.392751
v 0.255362 0.038328 -0.312195
vn 0.821806 0.497638 -0.277473
v 0.248742 0.062990 -0.310222
vn 0.821622 -0.561894 -0.095984
v 0.252093 0.011202 -0.280457
vn 0.688674 -0.537725 -0.486395
v 0.251918 0.018776 -0.305536
vn 0.711096 0.555376 0.431161
v 0.236777 0.053170 -0.204601
vn 0.820916 0.571046 0.002027
v 0.250444 0.065290 -0.291139
vn 0.802762 0.563595 0.194765
v 0.240332 0.063533 -0.237722
vn 0.999853 0.015959 0.006192
v 0.259345 0.035893 -0.287742
vn 0.980086 0.091428 0.176274
v 0.250945 0.032418 -0.232904
# 52 vertices, 0 vertices normals

f 1//1 2//2 3//3
f 4//4 3//3 2//2
f 5//5 1//1 3//3
f 6//6 3//3 4//4
f 7//7 5//5 3//3
f 6//6 7//7 3//3
f 8//8 2//2 1//1
f 9//9 4//4 2//2
f 10//10 2//2 8//8
f 10//10 9//9 2//2
f 11//11 1//1 5//5
f 12//12 8//8 1//1
f 11//11 12//12 1//1
f 13//13 6//6 4//4
f 14//14 4//4 9//9
f 13//13 4//4 14//14
f 15//15 5//5 7//7
f 16//16 11//11 5//5
f 15//15 16//16 5//5
f 17//17 7//7 6//6
f 18//18 7//7 17//17
f 15//15 7//7 18//18
f 19//19 6//6 13//13
f 20//20 17//17 6//6
f 21//21 20//20 6//6
f 19//19 21//21 6//6
f 22//22 8//8 12//12
f 23//23 8//8 22//22
f 23//23 10//10 8//8
f 24//24 12//12 11//11
f 25//25 22//22 12//12
f 24//24 25//25 12//12
f 26//26 24//24 11//11
f 16//16 26//26 11//11
f 27//27 22//22 25//25
f 28//28 22//22 27//27
f 28//28 23//23 22//22
f 27//27 25//25 24//24
f 29//29 27//27 24//24
f 30//30 24//24 26//26
f 31//31 24//24 30//30
f 29//29 24//24 31//31
f 32//32 28//28 27//27
f 32//32 27//27 29//29
f 33//33 14//14 9//9
f 34//34 33//33 9//9
f 34//34 9//9 10//10
f 13//13 14//14 33//33
f 35//35 13//13 33//33
f 36//36 33//33 34//34
f 36//36 35//35 33//33
f 19//19 13//13 35//35
f 28//28 34//34 10//10
f 28//28 10//10 23//23
f 32//32 34//34 28//28
f 32//32 36//36 34//34
f 37//37 30//30 26//26
f 16//16 38//38 26//26
f 37//37 26//26 38//38
f 37//37 31//31 30//30
f 16//16 31//31 38//38
f 37//37 38//38 31//31
f 39//39 31//31 16//16
f 40//40 29//29 31//31
f 39//39 40//40 31//31
f 41//41 16//16 15//15
f 39//39 16//16 41//41
f 42//42 17//17 20//20
f 42//42 43//43 17//17
f 18//18 17//17 43//43
f 42//42 20//20 21//21
f 42//42 21//21 43//43
f 18//18 43//43 21//21
f 44//44 18//18 21//21
f 45//45 21//21 19//19
f 45//45 44//44 21//21
f 46//46 15//15 18//18
f 44//44 47//47 18//18
f 46//46 18//18 47//47
f 41//41 15//15 46//46
f 48//48 32//32 29//29
f 48//48 29//29 40//40
f 49//49 19//19 35//35
f 50//50 35//35 36//36
f 50//50 49//49 35//35
f 45//45 19//19 49//49
f 48//48 36//36 32//32
f 48//48 50//50 36//36
f 44//44 51//51 47//47
f 46//46 47//47 51//51
f 49//49 51//51 44//44
f 52//52 46//46 51//51
f 50//50 52//52 51//51
f 50//50 51//51 49//49
f 45//45 49//49 44//44
f 41//41 46//46 52//52
f 40//40 41//41 52//52
f 48//48 40//40 52//52
f 48//48 52//52 50//50
f 39//39 41//41 40//40
# 100 faces, 0 coords texture

# End of File
